<svg 
    xmlns="http://www.w3.org/2000/svg" 
    viewBox="0 0 56 56"
>
<path 
    fill="#CC291F" 
    d="M34 17l-14.2 7.1.4.9 2.8-1.4v8h1v-8.5l1-.5v8h1v-8.5l1-.5v8.3h1v-8.8l1-.5v8.2h1v-8.7l1-.5v8.2h1v-8.7l2-1z"
/>
<path 
    d="M34 17l-14.2 7.1.4.9 2.8-1.4v8h1v-8.5l1-.5v8h1v-8.5l1-.5v8.3h1v-8.8l1-.5v8.2h1v-8.7l1-.5v8.2h1v-8.7l2-1z" opacity=".39"
/>
<path 
    fill="#CC291F" d="M44 23l-12-6v1.1l2 1v8.7h1v-8.2l1 .5v8.8h1v-8.3l1 .5v8.5h1v-8l1 .5v8.5h1v-8l1 .5v8.5h1v-8l1 .4z"
/>
<path 
d="M44 23l-12-6v1.1l2 1v8.7h1v-8.2l1 .5v8.8h1v-8.3l1 .5v8.5h1v-8l1 .5v8.5h1v-8l1 .5v8.5h1v-8l1 .4z"
opacity=".06"
/>
<path 
d="M52 46l-10 5-14-7-16 8-4-2 16-8-4-2 10-5z" 
opacity=".3"
/>
<path 
fill="#825012" 
d="M44 13l-2 1v27l2 1 2-1V14z"
/>
<path 
d="M46 41l-2 1V15l2-1z" opacity=".39"/><path d="M42 41l2 1V15l-2-1z" opacity=".06"/><path fill="#825012" d="M44 31l-12-6-12 6v1l12 6 12-6z"/><path d="M32 37v1l12-6v-1z" opacity=".39"/><path d="M32 37l-12-6v1l12 6z" opacity=".06"/><path fill="#825012" d="M52 33l-2 1v11l2 1 2-1V34z"/><path d="M54 45l-2 1V35l2-1z" opacity=".39"/><path d="M50 45l2 1V35l-2-1z" opacity=".06"/><path fill="#F90" d="M52 40.9l-9-13.4-.4.2v3l9 13.5.4-.2z"/><path d="M51.6 41.1l.4-.2V44l-.4.2z" opacity=".39"/><path fill="#CC291F" d="M51.4 41.9c0 .1-.1.2-.2.1s-.2-.2-.2-.4.1-.2.2-.1c.1.2.2.3.2.4zM43.2 30c0 .1-.1.2-.2.1s-.2-.2-.2-.4.1-.2.2-.1c.1.2.2.3.2.4z"/><path d="M42.6 27.7v3l9 13.5v-3.1z" opacity=".06"/><path fill="#F90" d="M52 35.3l-9-13.4-.4.2v3l9 13.5.4-.2z"/><path d="M51.6 35.5l.4-.2v3.1l-.4.2z" opacity=".39"/><path fill="#CC291F" d="M51.4 36.3c0 .1-.1.2-.2.1s-.2-.2-.2-.4c0-.1.1-.2.2-.1.1.2.2.3.2.4zM43.2 24.4c0 .1-.1.2-.2.1s-.2-.2-.2-.4c0-.1.1-.2.2-.1.1.2.2.3.2.4z"/><path d="M42.6 22.1v3l9 13.5v-3.1z" opacity=".06"/><path fill="#825012" d="M34 38v1l2 1 9.6-4.8v-1l-2-1z"/><path d="M36 39v1l9.6-4.8v-1z" opacity=".39"/><path d="M34 38v1l2 1v-1z" opacity=".06"/><path fill="#825012" d="M36 41v1l2 1 9.6-4.8v-1l-2-1z"/><path d="M38 42v1l9.6-4.8v-1z" opacity=".39"/><path d="M36 41v1l2 1v-1z" opacity=".06"/><path fill="#825012" d="M38 44v1l2 1 9.6-4.8v-1l-2-1z"/><path d="M40 45v1l9.6-4.8v-1z" opacity=".39"/><path d="M38 44v1l2 1v-1z" opacity=".06"/><g><path fill="#825012" d="M40 47v1l2 1 9.6-4.8v-1l-2-1z"/><path d="M42 48v1l9.6-4.8v-1z" opacity=".39"/><path d="M40 47v1l2 1v-1z" opacity=".06"/></g><g><path fill="#F90" d="M42.4 45.7l-9-13.4-.4.2v3L42 49l.4-.2z"/><path d="M42 45.9l.4-.2v3.1l-.4.2z" opacity=".39"/><path fill="#CC291F" d="M41.8 46.7c0 .1-.1.2-.2.1s-.2-.2-.2-.4c0-.1.1-.2.2-.1.1.2.2.3.2.4zM33.6 34.8c0 .1-.1.2-.2.1s-.2-.2-.2-.4c0-.1.1-.2.2-.1s.2.3.2.4z"/><path d="M33 32.5v3L42 49v-3.1z" opacity=".06"/><path fill="#F90" d="M42.4 40.1l-9-13.4-.4.2v3l9 13.5.4-.2z"/><path d="M42 40.3l.4-.2v3.1l-.4.2z" opacity=".39"/><path fill="#CC291F" d="M41.8 41.1c0 .1-.1.2-.2.1s-.2-.2-.2-.4.1-.2.2-.1c.1.2.2.3.2.4zM33.6 29.2c0 .1-.1.2-.2.1s-.2-.2-.2-.4c0-.1.1-.2.2-.1s.2.3.2.4z"/><path d="M33 26.9v3l9 13.5v-3.1z" opacity=".06"/></g><g><path fill="#825012" d="M40 39l-2 1v11l2 1 2-1V40z"/><path d="M42 51l-2 1V41l2-1z" opacity=".39"/><path d="M38 51l2 1V41l-2-1z" opacity=".06"/></g><g><path fill="#825012" d="M32 17l-2 1v29l2 1 2-1V18z"/><path d="M34 47l-2 1V19l2-1z" opacity=".39"/><path d="M30 47l2 1V19l-2-1z" opacity=".06"/></g><g><path fill="#825012" d="M20 13l-2 1v27l2 1 2-1V14z"/><path d="M22 41l-2 1V15l2-1z" opacity=".39"/><path d="M18 41l2 1V15l-2-1z" opacity=".06"/></g><g><path fill="#CC291F" d="M20 34.2l-2 1-.4-.2V24l2-1 .4.2z"/><path d="M17.6 35l.4.2v-11l-.4-.2z" opacity=".06"/><path fill="#F90" d="M18.7 27c0 .1.1.2.2.1s.2-.2.2-.4c0-.1-.1-.2-.2-.1s-.2.3-.2.4zM18.7 31.2c0 .1.1.2.2.1s.2-.2.2-.4-.1-.2-.2-.1-.2.3-.2.4z"/><path d="M20 34.2l-2 1v-11l2-1z" opacity=".39"/></g><g><path fill="#FC0" d="M18 14l15-8 6-6-14 7z"/><path fill="#F90" d="M39 0L25 7l7 14v1l14-7v-1z"/><path d="M32 21l14-7v1l-14 7z" opacity=".39"/><path fill="#CC291F" d="M25 7l-7 7v1l14 7v-1z"/><path fill="#F90" d="M19.2 15c0 .1-.1.2-.2.1s-.2-.2-.2-.4.1-.2.2-.1.2.3.2.4zM31.3 21c0 .1-.1.2-.2.1s-.2-.2-.2-.4.1-.2.2-.1.2.3.2.4z"/><path d="M25 7l-7 7v1l14 7v-1z" opacity=".06"/></g><g><path fill="#CC291F" d="M22 31l-2.7 1.3c-.9.4-1.6 1.1-2 1.9l-5.5 9.4c-.5.8-1.2 1.5-2 1.9l-2 1C6 47.5 5 49.2 5 51l.4.1 4.7-2.3c.9-.4 1.6-1.1 2-1.9l5.5-9.4c.5-.8 1.2-1.5 2-1.9l2.7-1.3v-3L22 31z"/><path d="M22.4 31.1v3l-2.7 1.3c-.9.4-1.6 1.1-2 1.9l-5.5 9.4c-.5.8-1.2 1.5-2 1.9l-4.7 2.3c0-1.8 1-3.5 2.7-4.3l2-1c.9-.4 1.6-1.1 2-1.9l5.5-9.4c.5-.8 1.2-1.5 2-1.9l2.7-1.3z" opacity=".39"/><path fill="#999" d="M22 33l6 3-2.7 1.3c-.9.4-1.6 1.1-2 1.9l-5.5 9.4c-.5.8-1.2 1.5-2 1.9l-1.8.9c-.7.4-1 1-1 1.6l-6-3c0-.6.3-1.2.9-1.4l1.8-.9c.9-.4 1.6-1.1 2-1.9l5.5-9.4c.5-.8 1.2-1.5 2-1.9L22 33z"/><path fill="#CC291F" d="M27.6 33.9l-2.7 1.3c-.9.4-1.6 1.1-2 1.9l-5.5 9.4c-.5.8-1.2 1.5-2 1.9l-2 1c-1.6.8-2.7 2.5-2.7 4.3l.3.3 4.7-2.3c.9-.4 1.6-1.1 2-1.9l5.5-9.4c.5-.8 1.2-1.5 2-1.9L28 37v-3l-.4-.1z"/><path d="M28 34v3l-2.7 1.3c-.9.4-1.6 1.1-2 1.9l-5.5 9.4c-.5.8-1.2 1.5-2 1.9L11 54c0-1.8 1-3.5 2.7-4.3l2-1c.9-.4 1.6-1.1 2-1.9l5.5-9.4c.5-.8 1.2-1.5 2-1.9L28 34z" opacity=".39"/></g><path fill="#CC291F" d="M29 32.5c-.1 0-.2 0-.2-.1l-10-5c-.2-.1-.3-.4-.2-.7.1-.2.4-.3.7-.2l10 5c.2.1.3.4.2.7-.1.2-.3.3-.5.3z"/><g><path fill="#CC291F" d="M30 39l-2 1-.4-.2v-11l2-1 .4.2z"/><path d="M27.6 39.8l.4.2V29l-.4-.2z" opacity=".06"/><path fill="#F90" d="M28.7 31.8c0 .1.1.2.2.1s.2-.2.2-.4-.1-.2-.2-.1-.2.3-.2.4zM28.7 36c0 .1.1.2.2.1s.2-.2.2-.4c0-.1-.1-.2-.2-.1s-.2.3-.2.4z"/><path d="M30 39l-2 1V29l2-1z" opacity=".39"/></g></svg>